<svg width="146" height="70" viewBox="0 0 146 70" fill="none" xmlns="http://www.w3.org/2000/svg">
<path d="M35.1171 5.50752V4.88986C35.1171 2.4089 34.5092 1.80153 32.0775 1.80153H3.81971C1.37793 1.80153 0.780151 2.41919 0.780151 4.88986V5.50752C0.780151 7.98847 1.38806 8.59585 3.81971 8.59585H14.3873V43.3498C14.3873 45.8925 14.9952 46.5205 17.5079 46.5205H18.4603C20.9628 46.5205 21.5809 45.9028 21.5809 43.3498V8.60614H32.0775C34.5092 8.60614 35.1171 7.98847 35.1171 5.50752Z" fill="#9C089E"/>
<path d="M45.9379 11.7048C45.4892 11.6309 45.034 11.6067 44.5802 11.6327C36.0424 11.6327 31.7735 15.6921 31.7735 23.811V43.4219C31.7735 45.9028 32.3815 46.5102 34.8131 46.5102H35.6946C38.1364 46.5102 38.7342 45.8925 38.7342 43.4219V24.2948C38.7342 19.9609 40.1526 18.2417 44.56 18.2417C45.0138 18.2158 45.469 18.2399 45.9177 18.3138C48.2885 18.6535 48.7647 18.1799 48.7647 15.9049V14.9372C48.785 12.5283 48.1771 11.9724 45.9379 11.7048Z" fill="#9C089E"/>
<path d="M55.6949 12.3842H54.8134C53.1291 12.3842 51.7637 13.7715 51.7637 15.4828V43.4219C51.7637 45.1332 53.1291 46.5205 54.8134 46.5205H55.6949C57.3792 46.5205 58.7446 45.1332 58.7446 43.4219V15.4828C58.7446 13.7715 57.3792 12.3842 55.6949 12.3842Z" fill="#9C089E"/>
<path d="M100.042 12.3842H99.1607C97.4764 12.3842 96.111 13.7715 96.111 15.4828V43.4219C96.111 45.1332 97.4764 46.5205 99.1607 46.5205H100.042C101.726 46.5205 103.092 45.1332 103.092 43.4219V15.4828C103.092 13.7715 101.726 12.3842 100.042 12.3842Z" fill="#9C089E"/>
<path d="M120.154 10.8709C117.884 10.8845 115.618 11.0703 113.376 11.4268C111.481 11.7665 110.934 12.3945 110.934 14.3813V15.349C110.934 17.4799 111.471 17.8917 113.437 17.552C115.775 17.1126 118.151 16.9057 120.529 16.9343C126.152 16.9343 128.523 18.2417 128.523 22.1639V25.5405H121.076C111.957 25.5405 107.256 28.7111 107.256 35.9378C107.256 43.1645 111.866 46.5411 121.005 46.5411C131.025 46.5411 135.433 43.1645 135.433 35.5261V22.1433C135.423 14.1754 130.245 10.8709 120.154 10.8709ZM128.553 35.1657C128.553 39.2835 126.314 40.5291 120.904 40.5291C116.567 40.5291 114.267 39.2938 114.267 35.7834C114.267 32.273 116.436 30.8936 121.106 30.8936H128.553V35.1657Z" fill="#9C089E"/>
<path d="M88.4513 11.2415C87.7473 11.2451 87.0538 11.4142 86.4249 11.7357C85.7427 12.0721 85.1798 12.6152 84.8139 13.2901C84.1385 15.5686 83.463 17.7751 82.7876 19.9094C82.1121 22.0438 81.3894 24.1713 80.6193 26.292C80.2681 27.3077 79.981 28.169 79.7581 28.8759C79.5352 29.5828 79.3495 30.1901 79.2009 30.698C79.0523 31.2058 78.9138 31.6485 78.7855 32.026C78.6571 32.4034 78.5187 32.7706 78.3701 33.1275C76.9719 29.5313 75.5635 26.0998 74.1451 22.8331C72.7266 19.5663 71.3082 16.4162 69.8897 13.3828C69.5058 12.7814 68.9869 12.2812 68.3757 11.9233C67.7646 11.5654 67.0785 11.36 66.3739 11.3239C65.8004 11.3205 65.2355 11.4658 64.7326 11.746C64.2317 12.0203 63.8119 12.4253 63.5163 12.9193C63.2207 13.4132 63.06 13.9783 63.0507 14.5563C63.0317 15.2659 63.1738 15.9704 63.4661 16.6152C65.6613 21.0761 67.708 25.6503 69.606 30.3377C71.504 35.0251 73.3244 39.7536 75.0671 44.5234C75.3534 45.1748 75.8294 45.7213 76.4308 46.0894C77.0322 46.4576 77.7303 46.6296 78.4309 46.5823C79.0386 46.5727 79.6365 46.4243 80.1802 46.1481C80.7239 45.8718 81.1995 45.4749 81.5717 44.9866C82.2472 43.415 82.9227 41.7164 83.5981 39.8909C84.2736 38.0654 84.922 36.2158 85.5434 34.3422L86.7896 30.8833L87.9852 27.5376H87.9143C88.5897 25.4787 89.2888 23.4644 90.0116 21.4948C90.7343 19.5251 91.3591 17.4662 91.886 15.3181C91.9711 14.7779 91.9312 14.225 91.7694 13.7032C91.6076 13.1815 91.3284 12.7052 90.9538 12.3122C90.2906 11.6349 89.3915 11.2503 88.4513 11.2415Z" fill="#9C089E"/>
<path d="M34.3369 3.67511V3.08833C34.3369 0.607371 33.729 0 31.2974 0H3.03956C0.597781 0 0 0.617665 0 3.08833V3.70599C0 6.18695 0.607912 6.79432 3.03956 6.79432H13.6071V41.5483C13.6071 44.091 14.215 44.719 16.7277 44.719H17.6801C20.1827 44.719 20.8007 44.1013 20.8007 41.5483V6.76343H31.2974C33.729 6.76343 34.3369 6.17665 34.3369 3.67511Z" fill="#FF53FF"/>
<path d="M45.1578 9.86207C44.7091 9.78822 44.2539 9.76406 43.8001 9.79001C35.2623 9.79001 30.9934 13.8494 30.9934 21.9683V41.5895C30.9934 44.0704 31.6013 44.6778 34.0329 44.6778H34.9144C37.3562 44.6778 37.954 44.0601 37.954 41.5895V22.4624C37.954 18.1285 39.3725 16.4093 43.7798 16.4093C44.2336 16.3834 44.6888 16.4075 45.1375 16.4814C47.5084 16.8211 47.9846 16.3476 47.9846 14.0725V13.1048C48.0048 10.6959 47.3969 10.14 45.1578 9.86207Z" fill="#FF53FF"/>
<path d="M54.9148 10.5518H54.0333C52.349 10.5518 50.9836 11.9391 50.9836 13.6504V41.5895C50.9836 43.3008 52.349 44.6881 54.0333 44.6881H54.9148C56.5991 44.6881 57.9645 43.3008 57.9645 41.5895V13.6504C57.9645 11.9391 56.5991 10.5518 54.9148 10.5518Z" fill="#FF53FF"/>
<path d="M99.262 10.5518H98.3806C96.6963 10.5518 95.3309 11.9391 95.3309 13.6504V41.5895C95.3309 43.3008 96.6963 44.6881 98.3806 44.6881H99.262C100.946 44.6881 102.312 43.3008 102.312 41.5895V13.6504C102.312 11.9391 100.946 10.5518 99.262 10.5518Z" fill="#FF53FF"/>
<path d="M119.374 9.03851C117.104 9.05212 114.838 9.23793 112.596 9.59441C110.701 9.93413 110.154 10.5621 110.154 12.5489V13.5166C110.154 15.6475 110.691 16.0593 112.656 15.7196C114.995 15.2802 117.37 15.0733 119.749 15.1019C125.372 15.1019 127.743 16.4093 127.743 20.3315V23.6772H120.326C111.207 23.6772 106.506 26.8479 106.506 34.0745C106.506 41.3012 111.116 44.6778 120.255 44.6778C130.276 44.6778 134.683 41.3012 134.683 33.6628V20.28C134.683 12.3533 129.465 9.03851 119.374 9.03851ZM127.773 33.3333C127.773 37.4511 125.534 38.6967 120.124 38.6967C115.787 38.6967 113.487 37.4614 113.487 33.951C113.487 30.4406 115.655 29.0612 120.326 29.0612H127.773V33.3333Z" fill="#FF53FF"/>
<path d="M87.6711 9.40912C86.9671 9.41268 86.2735 9.58181 85.6447 9.90325C84.9624 10.2397 84.3996 10.7828 84.0337 11.4577C83.3583 13.7362 82.6828 15.9426 82.0073 18.077C81.3319 20.2114 80.6091 22.3389 79.8391 24.4596C79.4879 25.4753 79.2008 26.3366 78.9779 27.0435C78.755 27.7503 78.5693 28.3577 78.4207 28.8656C78.2721 29.3734 78.1336 29.8161 78.0053 30.1936C77.8769 30.571 77.7385 30.9382 77.5899 31.2951C76.1917 27.6989 74.7833 24.2674 73.3649 21.0006C71.9464 17.7339 70.5111 14.5769 69.0588 11.5298C68.6749 10.9284 68.1561 10.4282 67.5449 10.0703C66.9337 9.7124 66.2476 9.50696 65.5431 9.47088C64.9695 9.46754 64.4046 9.6128 63.9017 9.89296C63.4009 10.1673 62.981 10.5723 62.6854 11.0663C62.3898 11.5602 62.2291 12.1253 62.2198 12.7033C62.2008 13.4129 62.343 14.1174 62.6352 14.7622C64.8305 19.2231 66.8771 23.7973 68.7751 28.4847C70.6732 33.1721 72.4935 37.9006 74.2362 42.6704C74.5226 43.3218 74.9985 43.8683 75.5999 44.2364C76.2014 44.6046 76.8994 44.7766 77.6 44.7293C78.2078 44.7197 78.8057 44.5712 79.3494 44.295C79.893 44.0188 80.3686 43.6219 80.7409 43.1336C81.4163 41.562 82.0918 39.8634 82.7672 38.0379C83.4427 36.2124 84.0911 34.3628 84.7126 32.4892L85.9892 29.0715L87.1847 25.7258H87.1138C87.7893 23.6669 88.4884 21.6526 89.2111 19.683C89.9339 17.7133 90.5587 15.6544 91.0855 13.5063C91.1707 12.9661 91.1308 12.4132 90.969 11.8914C90.8072 11.3696 90.5279 10.8933 90.1534 10.5003C89.4984 9.82047 88.6072 9.42869 87.6711 9.40912Z" fill="#FF53FF"/>
<path d="M31.7837 4.17955C31.7837 4.04573 31.7837 3.88102 31.7837 3.67513V3.08835C31.7837 2.88246 31.7837 2.70746 31.7837 2.58392H2.54311C2.54311 2.71775 2.54311 2.88246 2.54311 3.08835V3.70601C2.54311 3.9119 2.54311 4.0869 2.54311 4.21044H16.1401V41.538C16.1401 41.7748 16.1401 41.9704 16.1401 42.1145H16.7075H17.6599H18.2272C18.2272 41.9704 18.2272 41.7851 18.2272 41.538V4.18985H31.7634L31.7837 4.17955Z" fill="#F9CCFB"/>
<path d="M43.8102 13.8254C44.3654 13.8076 44.921 13.8351 45.4718 13.9078V13.1048C45.4718 12.8475 45.4718 12.6622 45.4718 12.518L44.8741 12.4254H44.5904H43.8203C36.6267 12.4254 33.5567 15.2975 33.5567 22.0301V41.5895C33.5567 41.7954 33.5567 41.9704 33.5567 42.0939H35.4413C35.4413 41.9601 35.4413 41.7954 35.4413 41.5895V22.4624C35.4514 16.574 38.106 13.8254 43.8102 13.8254Z" fill="#F9CCFB"/>
<path d="M54.0333 42.1145H55.3809C55.3809 41.9806 55.3809 41.8159 55.3809 41.61V13.6504C55.3809 13.4445 55.3809 13.2695 55.3809 13.146H53.4964C53.4964 13.2798 53.4964 13.4445 53.4964 13.6504V41.5894C53.4964 41.7953 53.4964 41.9703 53.4964 42.0939L54.0333 42.1145Z" fill="#F9CCFB"/>
<path d="M98.3805 42.1145H99.7584C99.7584 41.9806 99.7584 41.8159 99.7584 41.61V13.6504C99.7584 13.4445 99.7584 13.2695 99.7584 13.146H97.8739C97.8739 13.2798 97.8739 13.4445 97.8739 13.6504V41.5894C97.8739 41.7953 97.8739 41.9703 97.8739 42.0939L98.3805 42.1145Z" fill="#F9CCFB"/>
<path d="M132.383 20.3315C132.383 17.4387 132.383 11.4165 119.414 11.4165C117.263 11.4282 115.116 11.6037 112.991 11.9415L112.565 12.0342C112.557 12.2056 112.557 12.3774 112.565 12.5489V13.3313C114.966 12.9006 117.402 12.6973 119.84 12.7239C122.667 12.7239 130.174 12.7239 130.174 20.3315V26.0758H120.326C110.194 26.0758 108.847 29.9259 108.847 34.0951C108.847 36.3393 108.847 42.3306 120.255 42.3306C130.326 42.3306 132.343 39.0261 132.343 33.6936L132.383 20.3315ZM130.154 33.3436C130.154 40.21 124.815 41.085 120.164 41.085C112.748 41.085 111.187 37.2143 111.187 33.9613C111.187 29.1435 114.227 26.6934 120.367 26.6934H130.154V33.3436Z" fill="#F9CCFB"/>
<path d="M82.362 31.5935L84.1959 26.6008L84.7532 24.8404C85.4286 22.7815 86.1311 20.757 86.8606 18.7667C87.4989 16.924 88.0865 14.999 88.6033 13.0327C88.6033 12.8268 88.6033 12.4459 88.4614 12.3121C88.1271 12.0033 87.7015 11.7768 86.7998 12.2195C86.651 12.2931 86.5223 12.4027 86.4249 12.5386C85.7967 14.721 85.1483 16.8519 84.4796 18.8902C83.8109 20.9285 83.0307 23.2139 82.2911 25.3345C81.9567 26.3125 81.6731 27.1464 81.4603 27.8464C81.2475 28.5464 81.055 29.1332 80.9132 29.6273C80.7713 30.1214 80.6092 30.6568 80.4775 31.0274C80.3458 31.398 80.1634 31.923 79.9912 32.3347L77.5595 38.079L75.3001 32.2627C73.9222 28.7008 72.5138 25.2728 71.1156 22.0506C69.7174 18.8285 68.3597 15.874 66.9717 12.9298C66.2422 12.065 65.766 12.065 65.6039 12.065C65.4555 12.0601 65.3086 12.0957 65.1783 12.168C65.0659 12.227 64.9713 12.316 64.9048 12.4253C64.8379 12.5482 64.803 12.6864 64.8035 12.8268C64.8065 13.1224 64.8722 13.4138 64.996 13.6813C67.1743 18.1182 69.2615 22.7712 71.1663 27.4861C73.0711 32.2009 74.8847 36.8952 76.6274 41.6512C76.7591 41.9086 76.9212 42.1247 77.6406 42.1247C77.8324 42.1265 78.0222 42.086 78.1972 42.006C78.3721 41.926 78.5278 41.8085 78.6537 41.6615C79.2617 40.2614 79.8594 38.7379 80.437 37.1319C81.0719 35.3064 81.7136 33.4603 82.362 31.5935Z" fill="#F9CCFB"/>
<path d="M30.0005 68.5609C30.6875 68.5642 31.371 68.46 32.0268 68.2521C33.7252 67.6323 35.2318 66.5667 36.3937 65.1637C36.3794 65.3934 36.3794 65.6238 36.3937 65.8535C36.4216 66.3967 36.5678 66.927 36.8219 67.4058C37.0759 67.8847 37.4315 68.3003 37.8628 68.6227C38.4001 68.9835 39.0325 69.1701 39.6764 69.158C40.6519 69.1281 41.601 68.8292 42.4221 68.2932C43.6626 67.5201 44.7245 66.4846 45.5357 65.2571C46.347 64.0296 46.8885 62.6389 47.1233 61.1798C47.1413 61.0615 47.1361 60.9408 47.1082 60.8245C47.0802 60.7082 47.03 60.5987 46.9604 60.5021C46.8908 60.4056 46.8031 60.3239 46.7024 60.2618C46.6017 60.1997 46.49 60.1583 46.3736 60.14C46.2571 60.1218 46.1383 60.127 46.0239 60.1554C45.9095 60.1838 45.8016 60.2349 45.7066 60.3056C45.6116 60.3763 45.5312 60.4654 45.4701 60.5677C45.4089 60.67 45.3682 60.7835 45.3503 60.9018C45.1602 62.1018 44.7168 63.2457 44.0505 64.255C43.3841 65.2644 42.5106 66.1152 41.49 66.7491C40.6794 67.2432 39.5649 67.6138 38.8658 67.13C38.6561 66.9578 38.4851 66.7419 38.3645 66.4968C38.2439 66.2517 38.1764 65.9832 38.1667 65.7093C38.1426 64.9866 38.228 64.2644 38.42 63.5681C39.8397 57.1727 41.8305 50.9221 44.3675 44.894C44.4602 44.6728 44.4626 44.4233 44.3742 44.2004C44.2859 43.9774 44.114 43.7992 43.8963 43.705C43.6787 43.6108 43.4331 43.6083 43.2136 43.6981C42.9942 43.7879 42.8188 43.9625 42.7261 44.1837C41.2215 47.7644 39.9059 51.4242 38.7848 55.1473C38.2947 54.1394 37.5431 53.2865 36.6111 52.6806C35.6791 52.0747 34.602 51.7387 33.4959 51.7089C32.3953 51.7021 31.3049 51.9232 30.2911 52.3586C29.2773 52.7939 28.3614 53.4346 27.5992 54.2413C26.149 55.7923 25.0858 57.6738 24.4989 59.7283C23.7963 61.5073 23.7674 63.4878 24.4178 65.2873C24.9363 66.3237 25.7399 67.1848 26.7309 67.766C27.722 68.3471 28.8578 68.6233 30.0005 68.5609ZM26.2314 60.243C26.7289 58.4646 27.6392 56.8336 28.886 55.487C30.0267 54.2378 31.6074 53.4977 33.2832 53.4281H33.4554C34.2621 53.4425 35.0482 53.689 35.7225 54.1391C36.3968 54.5892 36.9317 55.2243 37.265 55.9708C37.538 56.8455 37.633 57.7675 37.5442 58.6807C37.4554 59.594 37.1846 60.4792 36.7483 61.2827C35.7026 63.6185 33.8179 65.4599 31.4797 66.4299C29.5648 67.0476 26.9305 66.4299 26.0794 64.4328C25.639 63.0621 25.6929 61.577 26.2314 60.243Z" fill="black"/>
<path d="M65.2696 59.8621C65.1605 59.8169 65.0438 59.7942 64.926 59.7951C64.8082 59.796 64.6918 59.8207 64.5835 59.8676C64.4752 59.9145 64.3771 59.9827 64.2948 60.0683C64.2126 60.154 64.1479 60.2553 64.1044 60.3665C63.2167 62.61 61.8538 64.6274 60.1124 66.2755C59.7089 66.7067 59.2131 67.0377 58.6636 67.2432C57.9341 67.4491 57.6504 67.2432 57.5795 67.1094C57.3709 66.8158 57.2314 66.4775 57.1717 66.1206C57.112 65.7637 57.1336 65.3976 57.235 65.0505L59.1702 56.1252C59.4898 55.0001 59.7368 53.855 59.9098 52.6972C59.9458 52.464 59.8908 52.2258 59.7566 52.0332C59.6224 51.8406 59.4195 51.7089 59.1911 51.6659C58.9627 51.623 58.7269 51.6723 58.5337 51.8034C58.3406 51.9345 58.2054 52.1369 58.157 52.3677L57.4376 55.6825C56.5916 58.6556 55.2182 61.4466 53.3849 63.9181C52.538 65.2371 51.32 66.2666 49.8894 66.8726C49.285 67.1015 48.6221 67.1151 48.0092 66.9113C47.3962 66.7074 46.8696 66.2982 46.5154 65.7505C46.2077 64.6262 46.2973 63.4278 46.7687 62.3636L49.6259 52.831C49.6599 52.7168 49.6713 52.5968 49.6596 52.4781C49.6479 52.3594 49.6134 52.2442 49.5579 52.139C49.5023 52.0339 49.427 51.9408 49.3361 51.8653C49.2452 51.7897 49.1406 51.7331 49.0281 51.6986C48.9157 51.6641 48.7977 51.6525 48.6808 51.6644C48.564 51.6762 48.4506 51.7114 48.3471 51.7678C48.2436 51.8242 48.152 51.9007 48.0777 51.9931C48.0033 52.0854 47.9476 52.1917 47.9136 52.306L45.0666 61.7666C44.7018 62.9813 44.1547 64.8549 44.9045 66.4505C45.9177 68.5712 48.481 69.1682 50.4466 68.5094C52.235 67.7985 53.7637 66.5437 54.8236 64.9166C55.1275 64.5117 55.418 64.0965 55.6949 63.671L55.4923 64.6078C55.317 65.2599 55.3049 65.9461 55.4571 66.6041C55.6093 67.2621 55.9209 67.8711 56.3636 68.3756C56.852 68.8388 57.4991 69.09 58.1671 69.0756C58.5098 69.076 58.8509 69.0275 59.1803 68.9315C60.0051 68.6514 60.752 68.1749 61.3586 67.5417C63.2944 65.7139 64.8096 63.4749 65.7964 60.9842C65.866 60.7642 65.8503 60.5254 65.7523 60.3168C65.6544 60.1082 65.4817 59.9455 65.2696 59.8621Z" fill="black"/>
<path d="M81.359 61.0871C81.1231 61.0758 80.8922 61.1589 80.716 61.3187C80.5398 61.4785 80.4324 61.7021 80.4167 61.9415C80.4508 63.2345 80.1762 64.5167 79.6163 65.6784C79.3977 66.1208 79.0295 66.4684 78.5792 66.6575C78.1289 66.8465 77.6266 66.8644 77.1644 66.7078C76.9289 66.5497 76.7312 66.34 76.5857 66.0942C76.4402 65.8484 76.3506 65.5727 76.3234 65.2872C76.2563 64.556 76.3285 63.8185 76.5362 63.1151C76.6476 62.6621 76.7794 62.2092 76.9009 61.7562C77.3028 60.5154 77.5546 59.2294 77.6507 57.9267C77.7504 56.8983 77.5627 55.8623 77.1094 54.9373C76.656 54.0123 75.9552 53.2359 75.0873 52.6971C74.3111 52.343 73.4597 52.1932 72.6115 52.2616C71.7633 52.3299 70.9457 52.6143 70.2342 53.0883C69.0685 53.8793 68.0724 54.9018 67.3061 56.0943L68.3192 52.8619C68.3538 52.7476 68.3659 52.6276 68.3549 52.5086C68.3438 52.3896 68.3098 52.274 68.2548 52.1684C68.1997 52.0627 68.1247 51.9691 68.0341 51.893C67.9435 51.8168 67.8389 51.7595 67.7265 51.7243C67.6141 51.6892 67.4959 51.6769 67.3788 51.6881C67.2617 51.6993 67.1479 51.7339 67.044 51.7898C66.94 51.8457 66.8479 51.9219 66.7729 52.014C66.6979 52.1061 66.6415 52.2123 66.607 52.3265L62.7264 65.1843C62.409 66.1108 62.1253 67.051 61.8754 68.0049C61.8161 68.2342 61.8476 68.4779 61.9631 68.6839C62.0787 68.8898 62.269 69.0415 62.4934 69.1064C62.5741 69.1179 62.6559 69.1179 62.7366 69.1064C62.9269 69.1063 63.1122 69.0442 63.2653 68.9294C63.4185 68.8146 63.5314 68.6529 63.5877 68.4682L64.4185 65.7196C65.4409 62.7629 66.8482 59.9585 68.6029 57.3811C69.2697 56.2828 70.1527 55.3365 71.1967 54.6016C71.6489 54.2916 72.1696 54.1001 72.7124 54.0444C73.2552 53.9888 73.8031 54.0705 74.3072 54.2825C74.8612 54.6728 75.3014 55.2078 75.5814 55.8311C75.8613 56.4543 75.9707 57.1427 75.8979 57.8238C75.8029 58.9801 75.5716 60.1206 75.2089 61.2209C75.0772 61.6945 74.9455 62.168 74.8239 62.6416C74.5557 63.5765 74.4731 64.5563 74.5807 65.524C74.6476 66.0861 74.8403 66.6253 75.1442 67.0999C75.448 67.5746 75.8549 67.9722 76.3335 68.2623C78.0965 69.2403 80.2039 68.1696 81.1563 66.6255C81.8907 65.2083 82.2602 63.6252 82.2303 62.0239C82.2344 61.9041 82.2149 61.7846 82.1732 61.6725C82.1315 61.5603 82.0683 61.4577 81.9872 61.3706C81.9062 61.2834 81.8089 61.2135 81.7011 61.1648C81.5932 61.1162 81.4769 61.0897 81.359 61.0871Z" fill="black"/>
<path d="M86.3743 68.5609C87.0613 68.5642 87.7448 68.46 88.4007 68.2521C90.099 67.6323 91.6057 66.5667 92.7675 65.1637C92.7533 65.3934 92.7533 65.6238 92.7675 65.8535C92.7954 66.3967 92.9416 66.927 93.1957 67.4058C93.4498 67.8847 93.8053 68.3003 94.2366 68.6227C94.7739 68.9835 95.4063 69.1701 96.0502 69.158C97.0257 69.1281 97.9749 68.8292 98.796 68.2932C100.036 67.5201 101.098 66.4846 101.91 65.2571C102.721 64.0296 103.262 62.6389 103.497 61.1798C103.533 60.9409 103.475 60.6971 103.334 60.5021C103.194 60.3072 102.983 60.1769 102.747 60.14C102.512 60.1032 102.272 60.1627 102.08 60.3056C101.889 60.4485 101.76 60.6629 101.724 60.9018C101.534 62.1018 101.091 63.2457 100.424 64.255C99.7579 65.2644 98.8845 66.1152 97.8638 66.7491C97.0533 67.2432 95.9388 67.6138 95.2397 67.13C95.0299 66.9578 94.8589 66.7419 94.7383 66.4968C94.6177 66.2517 94.5503 65.9832 94.5406 65.7093C94.5164 64.9866 94.6019 64.2644 94.7939 63.5681C96.2136 57.1727 98.2043 50.9221 100.741 44.894C100.834 44.6728 100.836 44.4233 100.748 44.2004C100.66 43.9774 100.488 43.7992 100.27 43.705C100.052 43.6108 99.8069 43.6083 99.5875 43.6981C99.368 43.7879 99.1926 43.9625 99.0999 44.1837C97.5953 47.7644 96.2797 51.4242 95.1586 55.1473C94.6685 54.1394 93.9169 53.2865 92.9849 52.6806C92.0529 52.0747 90.9758 51.7387 89.8698 51.7089C88.7691 51.7021 87.6787 51.9232 86.6649 52.3586C85.6511 52.7939 84.7352 53.4346 83.973 54.2413C82.5228 55.7923 81.4596 57.6738 80.8727 59.7283C80.1701 61.5073 80.1412 63.4878 80.7916 65.2873C81.3101 66.3237 82.1137 67.1848 83.1047 67.766C84.0958 68.3471 85.2317 68.6233 86.3743 68.5609ZM82.6052 60.243C83.1027 58.4646 84.0131 56.8336 85.2598 55.487C86.4006 54.2378 87.9812 53.4977 89.657 53.4281H89.8293C90.6359 53.4425 91.422 53.689 92.0963 54.1391C92.7707 54.5892 93.3055 55.2243 93.6388 55.9708C93.9119 56.8455 94.0069 57.7675 93.9181 58.6807C93.8292 59.594 93.5584 60.4792 93.1221 61.2827C92.0765 63.6185 90.1917 65.4599 87.8535 66.4299C85.9386 67.0476 83.3043 66.4299 82.4532 64.4328C82.016 63.0609 82.0735 61.5758 82.6154 60.243H82.6052Z" fill="black"/>
<path d="M103.953 67.3049C106.354 69.3638 109.921 68.6741 112.059 67.0064C112.537 66.6291 112.978 66.205 113.376 65.7402C113.51 66.5606 113.886 67.3203 114.454 67.9193C115.022 68.5184 115.755 68.9287 116.557 69.0961C116.712 69.1073 116.868 69.1073 117.023 69.0961C117.992 69.0561 118.927 68.7227 119.708 68.1388C121.062 67.2087 122.151 65.9314 122.862 64.4362C123.574 62.9411 123.884 61.2814 123.761 59.6253C123.751 59.5063 123.718 59.3905 123.664 59.2845C123.61 59.1784 123.536 59.0843 123.446 59.0073C123.356 58.9304 123.252 58.8722 123.14 58.836C123.028 58.7998 122.91 58.7864 122.793 58.7966C122.676 58.8067 122.562 58.8402 122.458 58.8951C122.353 58.95 122.261 59.0252 122.185 59.1165C122.109 59.2078 122.052 59.3133 122.016 59.4271C121.981 59.5409 121.968 59.6607 121.978 59.7797C122.069 61.1075 121.819 62.4367 121.253 63.6368C120.686 64.837 119.822 65.8668 118.746 66.6255C118.205 67.0598 117.529 67.2826 116.841 67.2535C116.345 67.1022 115.909 66.7939 115.597 66.3736C115.286 65.9533 115.114 65.4428 115.108 64.9166C115.09 63.8558 115.294 62.8031 115.706 61.8283C115.959 61.2106 116.172 60.6238 116.354 60.0988C116.537 59.5738 116.78 58.7811 116.983 58.1223C117.454 56.3675 118.103 54.6668 118.918 53.0471C119.033 52.8369 119.062 52.5887 118.997 52.357C118.933 52.1253 118.78 51.9292 118.573 51.8118C118.366 51.6944 118.122 51.6653 117.894 51.731C117.666 51.7966 117.473 51.9516 117.358 52.1618C116.971 52.879 116.632 53.6219 116.344 54.3854C115.875 53.493 115.211 52.7212 114.403 52.1289C113.595 51.5367 112.665 51.1395 111.684 50.9677C110.392 50.794 109.078 50.9433 107.857 51.4026C106.635 51.8619 105.542 52.6172 104.672 53.6031C103.006 55.5268 102.009 57.9541 101.835 60.5106C101.521 63.4548 102.312 65.8843 103.953 67.3049ZM103.568 60.7268C103.706 58.5744 104.535 56.5274 105.929 54.9001C106.511 54.2457 107.218 53.7184 108.007 53.3503C108.796 52.9822 109.651 52.781 110.518 52.7589C110.794 52.7602 111.068 52.7844 111.339 52.831C112.286 52.976 113.165 53.4197 113.85 54.0995C114.535 54.7793 114.993 55.6608 115.159 56.6193C115.173 57.9446 114.885 59.2553 114.318 60.4488L114.044 61.1797C113.426 62.8776 112.377 64.3796 111.005 65.5343C109.394 66.7902 106.76 67.2638 105.128 65.874C103.497 64.4843 103.467 61.7665 103.568 60.7371V60.7268Z" fill="black"/>
<path d="M29.0379 68.5609C29.725 68.5642 30.4085 68.46 31.0643 68.2521C32.7627 67.6323 34.2693 66.5667 35.4312 65.1637C35.4169 65.3934 35.4169 65.6238 35.4312 65.8535C35.459 66.3967 35.6053 66.927 35.8594 67.4058C36.1134 67.8847 36.4689 68.3003 36.9003 68.6227C37.4375 68.9835 38.07 69.1701 38.7139 69.158C39.6894 69.1281 40.6385 68.8292 41.4596 68.2932C42.7 67.5201 43.762 66.4846 44.5732 65.2571C45.3845 64.0296 45.9259 62.6389 46.1608 61.1798C46.1788 61.0615 46.1736 60.9408 46.1457 60.8245C46.1177 60.7082 46.0675 60.5987 45.9979 60.5021C45.9282 60.4056 45.8406 60.3239 45.7399 60.2618C45.6392 60.1997 45.5275 60.1583 45.4111 60.14C45.2946 60.1218 45.1758 60.127 45.0614 60.1554C44.9469 60.1838 44.8391 60.2349 44.7441 60.3056C44.6491 60.3763 44.5687 60.4654 44.5076 60.5677C44.4464 60.67 44.4057 60.7835 44.3877 60.9018C44.1977 62.1018 43.7543 63.2457 43.088 64.255C42.4216 65.2644 41.5481 66.1152 40.5275 66.7491C39.7169 67.2432 38.6024 67.6138 37.9033 67.13C37.6935 66.9578 37.5226 66.7419 37.402 66.4968C37.2814 66.2517 37.2139 65.9832 37.2042 65.7093C37.1801 64.9866 37.2655 64.2644 37.4575 63.5681C38.8772 57.1727 40.8679 50.9221 43.4049 44.894C43.4976 44.6728 43.5001 44.4233 43.4117 44.2004C43.3234 43.9774 43.1515 43.7992 42.9338 43.705C42.7161 43.6108 42.4706 43.6083 42.2511 43.6981C42.0317 43.7879 41.8563 43.9625 41.7636 44.1837C40.259 47.7644 38.9434 51.4242 37.8223 55.1473C37.3321 54.1394 36.5806 53.2865 35.6486 52.6806C34.7166 52.0747 33.6395 51.7387 32.5334 51.7089C31.4328 51.7021 30.3424 51.9232 29.3286 52.3586C28.3148 52.7939 27.3989 53.4346 26.6367 54.2413C25.1865 55.7923 24.1233 57.6738 23.5363 59.7283C22.8338 61.5073 22.8049 63.4878 23.4553 65.2873C23.9738 66.3237 24.7774 67.1848 25.7684 67.766C26.7595 68.3471 27.8953 68.6233 29.0379 68.5609ZM25.2689 60.243C25.7664 58.4646 26.6767 56.8336 27.9234 55.487C29.0642 54.2378 30.6449 53.4977 32.3207 53.4281H32.4929C33.2996 53.4425 34.0857 53.689 34.76 54.1391C35.4343 54.5892 35.9692 55.2243 36.3025 55.9708C36.5755 56.8455 36.6705 57.7675 36.5817 58.6807C36.4929 59.594 36.2221 60.4792 35.7858 61.2827C34.7401 63.6185 32.8553 65.4599 30.5172 66.4299C28.6023 67.0476 25.968 66.4299 25.1169 64.4328C24.6797 63.0609 24.7372 61.5758 25.279 60.243H25.2689Z" fill="#1B6384"/>
<path d="M64.3171 59.8621C64.2081 59.8169 64.0913 59.7942 63.9736 59.7951C63.8558 59.796 63.7394 59.8207 63.6311 59.8676C63.5227 59.9145 63.4246 59.9827 63.3424 60.0683C63.2602 60.154 63.1954 60.2553 63.152 60.3665C62.2643 62.61 60.9014 64.6274 59.16 66.2755C58.7564 66.7067 58.2607 67.0377 57.7111 67.2432C56.9816 67.4491 56.6979 67.2432 56.627 67.1094C56.4185 66.8158 56.279 66.4775 56.2193 66.1206C56.1596 65.7637 56.1812 65.3976 56.2825 65.0505L58.2177 56.1252C58.5373 55.0001 58.7844 53.855 58.9574 52.6972C58.9934 52.464 58.9384 52.2258 58.8042 52.0332C58.67 51.8406 58.4671 51.7089 58.2387 51.6659C58.0103 51.623 57.7745 51.6723 57.5813 51.8034C57.3882 51.9345 57.253 52.1369 57.2045 52.3677L56.4852 55.6825C55.6392 58.6556 54.2657 61.4466 52.4324 63.9181C51.5856 65.2371 50.3676 66.2666 48.9369 66.8726C48.3326 67.1015 47.6697 67.1151 47.0568 66.9113C46.4438 66.7074 45.9172 66.2982 45.563 65.7505C45.2553 64.6262 45.3449 63.4278 45.8163 62.3636L48.6735 52.831C48.7074 52.7168 48.7189 52.5968 48.7072 52.4781C48.6955 52.3594 48.6609 52.2442 48.6054 52.139C48.5499 52.0339 48.4746 51.9408 48.3837 51.8653C48.2928 51.7897 48.1881 51.7331 48.0757 51.6986C47.9633 51.6641 47.8453 51.6525 47.7284 51.6644C47.6116 51.6762 47.4982 51.7114 47.3947 51.7678C47.2912 51.8242 47.1996 51.9007 47.1253 51.9931C47.0509 52.0854 46.9951 52.1917 46.9612 52.306L44.1243 61.7666C43.7595 62.9813 43.2124 64.8549 43.9622 66.4505C44.9754 68.5712 47.5387 69.1682 49.5043 68.5094C51.2927 67.7985 52.8214 66.5437 53.8813 64.9166C54.1852 64.5117 54.4757 64.0965 54.7526 63.671L54.55 64.6078C54.3747 65.2599 54.3626 65.9461 54.5148 66.6041C54.667 67.2621 54.9786 67.8711 55.4213 68.3756C55.9097 68.8388 56.5568 69.09 57.2248 69.0756C57.5675 69.076 57.9086 69.0275 58.238 68.9315C59.0628 68.6514 59.8097 68.1749 60.4163 67.5417C62.3521 65.7139 63.8673 63.4749 64.8541 60.9842C64.9232 60.7629 64.906 60.523 64.806 60.3142C64.7061 60.1054 64.5311 59.9436 64.3171 59.8621Z" fill="#1B6384"/>
<path d="M80.4065 61.0871C80.1706 61.0758 79.9398 61.1589 79.7636 61.3187C79.5874 61.4785 79.4799 61.7021 79.4643 61.9415C79.4984 63.2345 79.2237 64.5167 78.6638 65.6784C78.4452 66.1208 78.0771 66.4684 77.6268 66.6575C77.1764 66.8465 76.6742 66.8644 76.2119 66.7078C75.9765 66.5497 75.7787 66.34 75.6332 66.0942C75.4878 65.8484 75.3981 65.5727 75.371 65.2872C75.3039 64.556 75.3761 63.8185 75.5838 63.1151C75.6952 62.6621 75.8269 62.2092 75.9485 61.7562C76.3504 60.5154 76.6022 59.2294 76.6983 57.9267C76.7979 56.8983 76.6103 55.8623 76.1569 54.9373C75.7035 54.0123 75.0027 53.2359 74.1349 52.6971C73.3587 52.343 72.5072 52.1932 71.659 52.2616C70.8108 52.3299 69.9933 52.6143 69.2817 53.0883C68.116 53.8793 67.12 54.9018 66.3536 56.0943L67.3668 52.8619C67.4014 52.7476 67.4135 52.6276 67.4024 52.5086C67.3914 52.3896 67.3574 52.274 67.3023 52.1684C67.2473 52.0627 67.1723 51.9691 67.0817 51.893C66.991 51.8168 66.8865 51.7595 66.7741 51.7243C66.6616 51.6892 66.5435 51.6769 66.4264 51.6881C66.3093 51.6993 66.1955 51.7339 66.0915 51.7898C65.9876 51.8457 65.8955 51.9219 65.8205 52.014C65.7455 52.1061 65.6891 52.2123 65.6545 52.3265L61.774 65.1843C61.4565 66.1108 61.1728 67.051 60.9229 68.0049C60.8636 68.2342 60.8951 68.4779 61.0107 68.6839C61.1262 68.8898 61.3166 69.0415 61.541 69.1064C61.6216 69.1179 61.7035 69.1179 61.7841 69.1064C61.9745 69.1063 62.1597 69.0442 62.3129 68.9294C62.466 68.8146 62.579 68.6529 62.6352 68.4682L63.466 65.7196C64.4885 62.7629 65.8958 59.9585 67.6505 57.3811C68.3172 56.2828 69.2003 55.3365 70.2443 54.6016C70.6965 54.2916 71.2172 54.1001 71.76 54.0444C72.3028 53.9888 72.8507 54.0705 73.3547 54.2825C73.9088 54.6728 74.349 55.2078 74.629 55.8311C74.9089 56.4543 75.0182 57.1427 74.9454 57.8238C74.8505 58.9801 74.6191 60.1206 74.2565 61.2209C74.1248 61.6945 73.9931 62.168 73.8715 62.6416C73.6033 63.5765 73.5206 64.5563 73.6283 65.524C73.6952 66.0861 73.8879 66.6253 74.1918 67.0999C74.4956 67.5746 74.9025 67.9722 75.3811 68.2623C77.1441 69.2403 79.2515 68.1696 80.2039 66.6255C80.9383 65.2083 81.3077 63.6252 81.2779 62.0239C81.2819 61.9041 81.2625 61.7846 81.2208 61.6725C81.1791 61.5603 81.1159 61.4577 81.0348 61.3706C80.9538 61.2834 80.8565 61.2135 80.7487 61.1648C80.6408 61.1162 80.5245 61.0897 80.4065 61.0871Z" fill="#1B6384"/>
<path d="M85.432 68.5609C86.119 68.5642 86.8025 68.46 87.4584 68.2521C89.1567 67.6323 90.6634 66.5667 91.8252 65.1637C91.811 65.3934 91.811 65.6238 91.8252 65.8535C91.8531 66.3967 91.9993 66.927 92.2534 67.4058C92.5074 67.8847 92.863 68.3003 93.2943 68.6227C93.8316 68.9835 94.464 69.1701 95.1079 69.158C96.0834 69.1281 97.0326 68.8292 97.8537 68.2932C99.0941 67.5201 100.156 66.4846 100.967 65.2571C101.779 64.0296 102.32 62.6389 102.555 61.1798C102.573 61.0615 102.568 60.9408 102.54 60.8245C102.512 60.7082 102.462 60.5987 102.392 60.5021C102.322 60.4056 102.235 60.3239 102.134 60.2618C102.033 60.1997 101.922 60.1583 101.805 60.14C101.689 60.1218 101.57 60.127 101.455 60.1554C101.341 60.1838 101.233 60.2349 101.138 60.3056C101.043 60.3763 100.963 60.4654 100.902 60.5677C100.84 60.67 100.8 60.7835 100.782 60.9018C100.592 62.1018 100.148 63.2457 99.482 64.255C98.8156 65.2644 97.9422 66.1152 96.9215 66.7491C96.111 67.2432 94.9965 67.6138 94.2974 67.13C94.0876 66.9578 93.9166 66.7419 93.796 66.4968C93.6754 66.2517 93.608 65.9832 93.5983 65.7093C93.5742 64.9866 93.6596 64.2644 93.8516 63.5681C95.2713 57.1727 97.262 50.9221 99.799 44.894C99.8917 44.6728 99.8941 44.4233 99.8058 44.2004C99.7174 43.9774 99.5455 43.7992 99.3279 43.705C99.1102 43.6108 98.8646 43.6083 98.6452 43.6981C98.4257 43.7879 98.2503 43.9625 98.1576 44.1837C96.6531 47.7644 95.3374 51.4242 94.2163 55.1473C93.7262 54.1394 92.9746 53.2865 92.0426 52.6806C91.1106 52.0747 90.0335 51.7387 88.9275 51.7089C87.8268 51.7021 86.7364 51.9232 85.7226 52.3586C84.7088 52.7939 83.7929 53.4346 83.0307 54.2413C81.5805 55.7923 80.5173 57.6738 79.9303 59.7283C79.2278 61.5073 79.1989 63.4878 79.8493 65.2873C80.3678 66.3237 81.1714 67.1848 82.1624 67.766C83.1535 68.3471 84.2894 68.6233 85.432 68.5609ZM81.6629 60.243C82.1604 58.4646 83.0707 56.8336 84.3175 55.487C85.4582 54.2378 87.0389 53.4977 88.7147 53.4281H88.887C89.6936 53.4425 90.4797 53.689 91.154 54.1391C91.8284 54.5892 92.3632 55.2243 92.6965 55.9708C92.9696 56.8455 93.0646 57.7675 92.9757 58.6807C92.8869 59.594 92.6161 60.4792 92.1798 61.2827C91.1342 63.6185 89.2494 65.4599 86.9112 66.4299C84.9963 67.0476 82.362 66.4299 81.5109 64.4328C81.0705 63.0621 81.1244 61.577 81.6629 60.243Z" fill="#1B6384"/>
<path d="M103.001 67.3049C105.402 69.3638 108.968 68.6741 111.106 67.0064C111.585 66.6291 112.026 66.205 112.423 65.7402C112.558 66.5606 112.934 67.3203 113.502 67.9193C114.07 68.5184 114.803 68.9287 115.605 69.0961C115.76 69.1073 115.916 69.1073 116.071 69.0961C117.04 69.0561 117.975 68.7227 118.756 68.1388C120.11 67.2087 121.198 65.9314 121.91 64.4362C122.622 62.9411 122.932 61.2814 122.808 59.6253C122.798 59.5063 122.766 59.3905 122.712 59.2845C122.658 59.1784 122.583 59.0843 122.494 59.0073C122.404 58.9304 122.3 58.8722 122.188 58.836C122.076 58.7998 121.958 58.7864 121.841 58.7966C121.724 58.8067 121.61 58.8402 121.505 58.8951C121.401 58.95 121.308 59.0252 121.233 59.1165C121.157 59.2078 121.1 59.3133 121.064 59.4271C121.028 59.5409 121.015 59.6607 121.025 59.7797C121.117 61.1075 120.867 62.4367 120.3 63.6368C119.734 64.837 118.87 65.8668 117.793 66.6255C117.253 67.0598 116.577 67.2826 115.888 67.2535C115.392 67.1022 114.957 66.7939 114.645 66.3736C114.333 65.9533 114.162 65.4428 114.156 64.9166C114.138 63.8558 114.341 62.8031 114.754 61.8283C115.007 61.2106 115.22 60.6238 115.402 60.0988C115.584 59.5738 115.828 58.7811 116.03 58.1223C116.502 56.3675 117.15 54.6668 117.965 53.0471C118.081 52.8369 118.11 52.5887 118.045 52.357C117.98 52.1253 117.828 51.9292 117.621 51.8118C117.414 51.6944 117.17 51.6653 116.942 51.731C116.714 51.7966 116.521 51.9516 116.405 52.1618C116.018 52.879 115.68 53.6219 115.392 54.3854C114.922 53.493 114.258 52.7212 113.451 52.1289C112.643 51.5367 111.713 51.1395 110.731 50.9677C109.44 50.794 108.126 50.9433 106.904 51.4026C105.682 51.8619 104.589 52.6172 103.72 53.6031C102.054 55.5268 101.057 57.9541 100.883 60.5106C100.579 63.4548 101.369 65.8843 103.001 67.3049ZM102.616 60.7268C102.754 58.5744 103.583 56.5274 104.976 54.9001C105.559 54.2457 106.266 53.7184 107.055 53.3503C107.844 52.9822 108.698 52.781 109.566 52.7589C109.841 52.7602 110.116 52.7844 110.387 52.831C111.323 52.9878 112.188 53.4368 112.861 54.1156C113.535 54.7945 113.984 55.6695 114.146 56.6193C114.16 57.9446 113.872 59.2553 113.305 60.4488L113.031 61.1797C112.413 62.8776 111.364 64.3796 109.992 65.5343C108.381 66.7902 105.746 67.2638 104.115 65.874C102.484 64.4843 102.514 61.7665 102.616 60.7371V60.7268Z" fill="#1B6384"/>
<path d="M144.663 11.5016L141.918 8.23825L140.276 8.62944C140.283 8.67095 140.301 8.70994 140.327 8.74268L143.508 12.531C143.539 12.566 143.56 12.6092 143.567 12.6555C143.575 12.7018 143.569 12.7493 143.551 12.7925C143.533 12.8357 143.503 12.8728 143.465 12.8994C143.427 12.9261 143.382 12.9411 143.336 12.9428L138.442 13.2002L139.182 14.734L143.407 14.5075C143.734 14.4886 144.049 14.3774 144.318 14.1865C144.586 13.9957 144.797 13.7326 144.926 13.4269C145.055 13.1212 145.098 12.7849 145.05 12.4558C145.002 12.1266 144.865 11.8176 144.653 11.5634L144.663 11.5016Z" fill="black"/>
<path d="M136.7 5.29407L141.219 3.34842C141.261 3.32821 141.309 3.32109 141.356 3.32792C141.402 3.33474 141.446 3.35523 141.482 3.38688C141.517 3.41852 141.543 3.45997 141.555 3.50615C141.568 3.55233 141.567 3.60125 141.553 3.64696L140.286 8.49563C140.282 8.52291 140.282 8.55072 140.286 8.57799L141.938 8.1868L143.022 4.06903C143.109 3.74627 143.105 3.40512 143.01 3.08467C142.915 2.76422 142.733 2.47745 142.485 2.25722C142.239 2.03621 141.936 1.89006 141.612 1.83545C141.287 1.78084 140.955 1.81997 140.651 1.94838L136.75 3.5852L136.588 5.28377C136.624 5.29596 136.662 5.29949 136.7 5.29407Z" fill="black"/>
<path d="M130.702 7.2809L132.353 7.8471C132.358 7.81985 132.358 7.79198 132.353 7.76474L131.968 2.80283C131.965 2.75686 131.974 2.7108 131.995 2.66987C132.016 2.62893 132.047 2.59474 132.086 2.57118C132.125 2.54762 132.17 2.53562 132.215 2.53653C132.261 2.53744 132.305 2.55123 132.343 2.57635L136.446 5.28378H136.517L136.68 3.57491L133.184 1.28955C132.908 1.10854 132.589 1.00925 132.261 1.00283C131.933 0.996416 131.609 1.08312 131.327 1.25321C131.045 1.4233 130.815 1.67003 130.664 1.96561C130.512 2.2612 130.444 2.59392 130.469 2.92636L130.803 7.20884L130.702 7.2809Z" fill="black"/>
<path d="M138.149 13.4678L134.217 22.2181V22.2901C134.203 22.3148 134.194 22.3423 134.19 22.3708C134.187 22.3993 134.189 22.4282 134.198 22.4557C134.206 22.4831 134.22 22.5086 134.238 22.5303C134.257 22.552 134.279 22.5696 134.305 22.5818C134.33 22.5941 134.358 22.6008 134.387 22.6015C134.415 22.6022 134.443 22.5969 134.469 22.5859C134.495 22.5749 134.519 22.5585 134.538 22.5377C134.558 22.5169 134.573 22.4922 134.582 22.4651V22.3828L134.734 22.1254L139.152 14.7237L138.402 13.1693C138.26 13.2002 138.149 13.4678 138.149 13.4678Z" fill="black"/>
<path d="M143.944 10.9045L141.198 7.64119L139.557 8.03238C139.564 8.0739 139.581 8.11288 139.608 8.14562L142.789 11.934C142.82 11.9689 142.84 12.0121 142.848 12.0584C142.855 12.1047 142.85 12.1523 142.832 12.1955C142.814 12.2387 142.784 12.2758 142.746 12.3024C142.708 12.329 142.663 12.344 142.617 12.3457L137.723 12.6031L138.463 14.137L142.688 13.9105C143.027 13.9029 143.357 13.7959 143.638 13.6025C143.919 13.409 144.139 13.1373 144.271 12.8198C144.404 12.5024 144.444 12.1529 144.386 11.8131C144.328 11.4734 144.174 11.1579 143.944 10.9045Z" fill="#82D7EC"/>
<path d="M136.021 4.69698L140.55 2.79252C140.593 2.77231 140.64 2.76518 140.687 2.77201C140.734 2.77884 140.777 2.79933 140.813 2.83097C140.848 2.86262 140.874 2.90406 140.887 2.95024C140.899 2.99642 140.898 3.04535 140.884 3.09106L139.618 7.89855C139.613 7.92582 139.613 7.95363 139.618 7.98091L141.269 7.58972L142.353 3.47195C142.44 3.1492 142.436 2.80804 142.341 2.48759C142.246 2.16714 142.064 1.88036 141.816 1.66013C141.57 1.43913 141.267 1.29298 140.943 1.23837C140.619 1.18376 140.286 1.22289 139.982 1.3513L136.082 2.98812L135.92 4.6867C135.952 4.69735 135.987 4.70086 136.021 4.69698Z" fill="#82D7EC"/>
<path d="M130.023 6.68381L131.674 7.25001C131.679 7.22277 131.679 7.19489 131.674 7.16765L131.289 2.20574C131.286 2.15978 131.295 2.11372 131.316 2.07278C131.337 2.03184 131.368 1.99766 131.407 1.9741C131.446 1.95053 131.491 1.93853 131.537 1.93944C131.582 1.94036 131.626 1.95415 131.664 1.97926L135.838 4.6764H135.909L136.072 2.96753L132.556 0.640995C132.277 0.431477 131.944 0.309983 131.598 0.291695C131.252 0.273407 130.908 0.35913 130.61 0.538162C130.312 0.717194 130.072 0.981596 129.921 1.29832C129.769 1.61505 129.713 1.97005 129.759 2.31898L130.094 6.60146L130.023 6.68381Z" fill="#82D7EC"/>
<path d="M137.47 12.881L133.539 21.6313V21.7033C133.524 21.728 133.515 21.7555 133.511 21.784C133.508 21.8125 133.511 21.8414 133.519 21.8689C133.527 21.8964 133.541 21.9218 133.559 21.9435C133.578 21.9652 133.601 21.9828 133.626 21.995C133.652 22.0073 133.679 22.014 133.708 22.0147C133.736 22.0154 133.764 22.0101 133.79 21.9991C133.816 21.9881 133.84 21.9717 133.859 21.9509C133.879 21.9301 133.894 21.9054 133.903 21.8784V21.796L134.055 21.5386L138.473 14.137L137.733 12.6134C137.581 12.6134 137.47 12.881 137.47 12.881Z" fill="#82D7EC"/>
<path d="M143.67 11.1927L141.077 8.10442L140.347 8.27942L143.164 11.5839C143.246 11.6805 143.299 11.7985 143.318 11.9245C143.337 12.0504 143.321 12.1793 143.271 12.2963C143.222 12.4133 143.14 12.5138 143.037 12.5863C142.934 12.6587 142.813 12.7002 142.688 12.706L138.432 12.9325L138.746 13.5913L142.718 13.3752C142.966 13.3603 143.205 13.2756 143.408 13.1305C143.611 12.9855 143.771 12.7858 143.868 12.5539C143.966 12.3221 143.998 12.0671 143.962 11.8176C143.925 11.5681 143.821 11.3339 143.66 11.1413L143.67 11.1927Z" fill="#C9FFFF"/>
<path d="M140.641 2.31895C140.744 2.31859 140.845 2.34227 140.937 2.38814C141.03 2.43402 141.11 2.50087 141.173 2.5835C141.236 2.66613 141.279 2.76232 141.299 2.86462C141.319 2.96691 141.316 3.07257 141.289 3.17339L140.185 7.36322L140.925 7.18821L141.918 3.34839C141.982 3.10351 141.978 2.84523 141.905 2.60275C141.832 2.36026 141.694 2.14323 141.507 1.97618C141.319 1.80913 141.089 1.69871 140.843 1.65741C140.597 1.61611 140.345 1.64558 140.114 1.74247L136.457 3.34839L136.386 4.11018L140.378 2.43219C140.456 2.37558 140.546 2.33695 140.641 2.31895Z" fill="#C9FFFF"/>
<path d="M135.585 3.21458L132.282 1.03216C132.073 0.904049 131.834 0.836378 131.59 0.836472C131.346 0.836565 131.107 0.904416 130.898 1.03269C130.69 1.16096 130.52 1.34478 130.406 1.56423C130.293 1.78369 130.241 2.03044 130.256 2.27779L130.57 6.39555L131.259 6.63233L130.914 2.22632C130.906 2.10222 130.931 1.97815 130.988 1.86766C131.044 1.75716 131.129 1.66448 131.233 1.5997C131.338 1.53492 131.458 1.50054 131.58 1.5003C131.703 1.50006 131.823 1.53399 131.928 1.59836L135.524 3.96607L135.585 3.21458Z" fill="#C9FFFF"/>
<path d="M135.474 18.3577L137.997 14.1267L137.682 13.4575L135.474 18.3577Z" fill="#C9FFFF"/>
<path d="M130.833 7.46618L130.084 7.20882L127.105 9.65888C126.967 9.77373 126.853 9.91609 126.771 10.0772C126.689 10.2383 126.641 10.4148 126.629 10.5957V10.6986C126.644 10.8959 126.719 11.0834 126.845 11.2348C126.97 11.3862 127.139 11.4939 127.328 11.5428L129.587 11.8001L127.784 11.3678C127.661 11.3387 127.549 11.2752 127.461 11.1844C127.372 11.0937 127.311 10.9794 127.283 10.8547C127.256 10.73 127.263 10.5999 127.305 10.4795C127.347 10.359 127.422 10.253 127.52 10.1736L130.833 7.46618Z" fill="#C9FFFF"/>
<path d="M28.9467 67.1814C29.6338 67.1847 30.3172 67.0805 30.9731 66.8726C32.6717 66.2532 34.1785 65.1876 35.34 63.7842C35.3257 64.0139 35.3257 64.2443 35.34 64.474C35.3678 65.0172 35.5141 65.5474 35.7682 66.0263C36.0222 66.5052 36.3777 66.9208 36.8091 67.2432C37.3466 67.6034 37.9788 67.79 38.6227 67.7785C39.5946 67.7462 40.5399 67.4474 41.3583 66.9137C42.5987 66.1406 43.6607 65.1051 44.4719 63.8776C45.2831 62.6501 45.8246 61.2594 46.0595 59.8003C46.0958 59.5614 46.0372 59.3176 45.8965 59.1227C45.7559 58.9277 45.5449 58.7974 45.3097 58.7605C45.0746 58.7237 44.8347 58.7832 44.6428 58.9261C44.4509 59.069 44.3227 59.2834 44.2864 59.5223C44.0964 60.7223 43.653 61.8662 42.9866 62.8756C42.3203 63.8849 41.4468 64.7357 40.4262 65.3696C39.6156 65.8637 38.5011 66.224 37.802 65.7505C37.5936 65.5777 37.4242 65.3615 37.3053 65.1164C37.1864 64.8712 37.1208 64.603 37.113 64.3298C37.09 63.6072 37.1754 62.8851 37.3663 62.1886C38.7868 55.7934 40.7775 49.5429 43.3137 43.5145C43.4065 43.2934 43.4089 43.0439 43.3205 42.8209C43.2322 42.5979 43.0603 42.4197 42.8426 42.3255C42.625 42.2313 42.3794 42.2288 42.1599 42.3186C41.9405 42.4084 41.7651 42.583 41.6724 42.8042C40.1681 46.3851 38.8525 50.0448 37.7311 53.7677C37.2409 52.7599 36.4894 51.907 35.5574 51.3011C34.6254 50.6952 33.5483 50.3592 32.4422 50.3294C31.3399 50.3212 30.2475 50.5416 29.2319 50.977C28.2162 51.4125 27.2987 52.0538 26.5353 52.8619C25.0888 54.4138 24.0291 56.2953 23.4451 58.3488C22.7425 60.1278 22.7137 62.1083 23.3641 63.9078C23.8825 64.9442 24.6861 65.8053 25.6772 66.3865C26.6683 66.9676 27.8041 67.2438 28.9467 67.1814ZM25.1777 58.8738C25.6755 57.0956 26.5858 55.4646 27.8322 54.1178C28.9737 52.8695 30.554 52.1296 32.2295 52.0589H32.4017C33.2084 52.0733 33.9945 52.3198 34.6688 52.7699C35.3431 53.22 35.878 53.8551 36.2113 54.6016C36.4843 55.4763 36.5793 56.3983 36.4905 57.3115C36.4017 58.2248 36.1309 59.11 35.6946 59.9135C34.6489 62.2493 32.7641 64.0907 30.426 65.0607C28.5111 65.6784 25.8768 65.0607 25.0257 63.0636C24.5853 61.6929 24.6392 60.2078 25.1777 58.8738Z" fill="#82D7EC"/>
<path d="M64.2158 58.4929C64.1068 58.4478 63.99 58.425 63.8723 58.4259C63.7545 58.4269 63.6381 58.4515 63.5298 58.4984C63.4214 58.5453 63.3233 58.6135 63.2411 58.6992C63.1589 58.7848 63.0942 58.8861 63.0507 58.9973C62.163 61.2408 60.8001 63.2583 59.0587 64.9063C58.654 65.3361 58.1586 65.6669 57.6098 65.874C56.8803 66.0799 56.5967 65.874 56.5257 65.7505C56.3165 65.4572 56.1766 65.119 56.1169 64.7619C56.0571 64.4048 56.0791 64.0386 56.1812 63.6916L58.1164 54.756C58.4355 53.6343 58.6826 52.4926 58.8561 51.3383C58.8921 51.1052 58.8371 50.867 58.7029 50.6744C58.5687 50.4818 58.3658 50.35 58.1374 50.3071C57.909 50.2641 57.6732 50.3135 57.48 50.4445C57.2869 50.5756 57.1517 50.7781 57.1032 51.0089L56.3839 54.3134C55.5381 57.2865 54.1646 60.0776 52.3311 62.5489C51.4838 63.8675 50.2659 64.8969 48.8356 65.5034C48.2313 65.7323 47.5684 65.7459 46.9555 65.5421C46.3425 65.3382 45.8159 64.929 45.4617 64.3813C45.154 63.257 45.2436 62.0586 45.715 60.9945L48.5722 51.4618C48.6407 51.2311 48.6162 50.9822 48.5041 50.7698C48.392 50.5575 48.2015 50.3991 47.9744 50.3294C47.7474 50.2598 47.5024 50.2847 47.2934 50.3986C47.0844 50.5125 46.9284 50.7061 46.8599 50.9368L44.0027 60.4694C43.638 61.6842 43.0909 63.5578 43.8406 65.1534C44.8538 67.274 47.4172 67.8814 49.3828 67.2123C51.1712 66.5014 52.6998 65.2466 53.7597 63.6195C54.0637 63.2146 54.3541 62.7994 54.6311 62.3739L54.4284 63.3107C54.2532 63.9628 54.2411 64.649 54.3933 65.307C54.5454 65.965 54.857 66.5739 55.2998 67.0785C55.7888 67.5407 56.4355 67.7918 57.1032 67.7785C57.4459 67.7788 57.787 67.7303 58.1164 67.6344C58.9413 67.3543 59.6882 66.8778 60.2948 66.2446C62.2298 64.4161 63.7448 62.1773 64.7326 59.6871C64.7781 59.5744 64.8008 59.4536 64.7993 59.3319C64.7978 59.2101 64.7722 59.0899 64.724 58.9784C64.6757 58.867 64.6059 58.7665 64.5186 58.6831C64.4313 58.5997 64.3283 58.535 64.2158 58.4929Z" fill="#82D7EC"/>
<path d="M80.3154 59.7076C80.0795 59.6963 79.8487 59.7795 79.6725 59.9393C79.4963 60.099 79.3888 60.3227 79.3732 60.5621C79.4089 61.8586 79.1342 63.1445 78.5728 64.3093C78.3449 64.7431 77.9758 65.0829 77.5285 65.2707C77.0812 65.4585 76.5836 65.4825 76.1208 65.3387C75.8854 65.1805 75.6876 64.9709 75.5421 64.7251C75.3966 64.4793 75.3071 64.2036 75.2799 63.9181C75.2128 63.1869 75.285 62.4494 75.4927 61.7459C75.6041 61.293 75.7358 60.84 75.8574 60.3871C76.2628 59.1466 76.5179 57.8607 76.6173 56.5576C76.717 55.5292 76.5294 54.4931 76.076 53.5681C75.6226 52.6432 74.9218 51.8668 74.0539 51.328C73.2777 50.9738 72.4263 50.824 71.5781 50.8924C70.7299 50.9608 69.9123 51.2451 69.2008 51.7192C68.0322 52.5065 67.0355 53.5297 66.2727 54.7251L67.2859 51.4927C67.3204 51.3785 67.3326 51.2584 67.3215 51.1394C67.3104 51.0204 67.2764 50.9048 67.2214 50.7992C67.1663 50.6936 67.0914 50.6 67.0007 50.5238C66.9101 50.4476 66.8056 50.3903 66.6931 50.3552C66.5807 50.32 66.4626 50.3077 66.3454 50.3189C66.2283 50.3302 66.1146 50.3648 66.0106 50.4207C65.9066 50.4766 65.8145 50.5528 65.7395 50.6449C65.6646 50.737 65.6082 50.8432 65.5736 50.9574L61.6221 63.8254C61.3047 64.7519 61.021 65.6887 60.7711 66.6358C60.7118 66.8651 60.7433 67.1088 60.8588 67.3147C60.9743 67.5207 61.1647 67.6724 61.3891 67.7373C61.4698 67.7487 61.5516 67.7487 61.6323 67.7373C61.8226 67.7371 62.0079 67.6751 62.161 67.5603C62.3142 67.4454 62.4271 67.2838 62.4833 67.099L63.3142 64.3607C64.337 61.4042 65.7442 58.5998 67.4986 56.0222C68.1658 54.9243 69.0488 53.9781 70.0924 53.2427C70.5446 52.9327 71.0653 52.7413 71.6081 52.6856C72.1509 52.6299 72.6988 52.7117 73.2029 52.9236C73.7577 53.3132 74.1986 53.8481 74.4786 54.4715C74.7586 55.0949 74.8675 55.7837 74.7936 56.4649C74.6978 57.6211 74.4665 58.7616 74.1046 59.8621C73.9729 60.3356 73.8412 60.8092 73.7196 61.2827C73.4519 62.2178 73.3693 63.1974 73.4764 64.1651C73.5433 64.7273 73.736 65.2664 74.0399 65.7411C74.3437 66.2158 74.7506 66.6134 75.2292 66.9035C76.982 67.8711 79.0996 66.8108 80.052 65.2666C80.7864 63.8494 81.1559 62.2664 81.126 60.665C81.1401 60.4296 81.0633 60.198 80.912 60.0192C80.7606 59.8404 80.5466 59.7287 80.3154 59.7076Z" fill="#82D7EC"/>
<path d="M85.3306 67.1814C86.0177 67.1847 86.7011 67.0805 87.357 66.8726C89.0556 66.2532 90.5624 65.1876 91.7238 63.7842C91.7096 64.0139 91.7096 64.2443 91.7238 64.474C91.7517 65.0172 91.898 65.5474 92.1521 66.0263C92.4061 66.5052 92.7616 66.9208 93.193 67.2432C93.7305 67.6034 94.3627 67.79 95.0066 67.7785C95.9785 67.7462 96.9238 67.4474 97.7422 66.9137C98.9826 66.1406 100.045 65.1051 100.856 63.8776C101.667 62.6501 102.209 61.2594 102.443 59.8003C102.48 59.5614 102.421 59.3176 102.28 59.1227C102.14 58.9277 101.929 58.7974 101.694 58.7605C101.458 58.7237 101.219 58.7832 101.027 58.9261C100.835 59.069 100.707 59.2834 100.67 59.5223C100.48 60.7223 100.037 61.8662 99.3705 62.8756C98.7042 63.8849 97.8307 64.7357 96.8101 65.3696C95.9995 65.8637 94.885 66.224 94.1859 65.7505C93.9775 65.5777 93.8081 65.3615 93.6892 65.1164C93.5703 64.8712 93.5047 64.603 93.4969 64.3298C93.4739 63.6072 93.5593 62.8851 93.7502 62.1886C95.1707 55.7934 97.1614 49.5429 99.6976 43.5145C99.7903 43.2934 99.7928 43.0439 99.7044 42.8209C99.6161 42.5979 99.4442 42.4197 99.2265 42.3255C99.0088 42.2313 98.7633 42.2288 98.5438 42.3186C98.3244 42.4084 98.149 42.583 98.0563 42.8042C96.552 46.3851 95.2364 50.0448 94.115 53.7677C93.6249 52.7599 92.8733 51.907 91.9413 51.3011C91.0093 50.6952 89.9322 50.3592 88.8261 50.3294C87.7238 50.3212 86.6314 50.5416 85.6158 50.977C84.6002 51.4125 83.6826 52.0538 82.9192 52.8619C81.4727 54.4138 80.4131 56.2953 79.829 58.3488C79.1264 60.1278 79.0976 62.1083 79.748 63.9078C80.2664 64.9442 81.07 65.8053 82.0611 66.3865C83.0522 66.9676 84.188 67.2438 85.3306 67.1814ZM81.5616 58.8738C82.0594 57.0956 82.9697 55.4646 84.2161 54.1178C85.3576 52.8695 86.9379 52.1296 88.6134 52.0589H88.816C89.6227 52.0733 90.4088 52.3198 91.0831 52.7699C91.7574 53.22 92.2923 53.8551 92.6256 54.6016C92.8986 55.4763 92.9936 56.3983 92.9048 57.3115C92.816 58.2248 92.5452 59.11 92.1089 59.9135C91.0632 62.2493 89.1784 64.0907 86.8403 65.0607C84.9254 65.6784 82.2911 65.0607 81.44 63.0636C80.9899 61.6966 81.033 60.2115 81.5616 58.8738Z" fill="#82D7EC"/>
<path d="M102.899 65.8843C105.301 67.9431 108.877 67.2637 111.005 65.5857C111.484 65.2085 111.925 64.7843 112.322 64.3195C112.456 65.1385 112.831 65.8973 113.396 66.4962C113.962 67.0951 114.693 67.5062 115.493 67.6755C115.648 67.6866 115.804 67.6866 115.959 67.6755C116.928 67.6349 117.863 67.3015 118.644 66.7181C119.999 65.788 121.087 64.5107 121.798 63.0156C122.51 61.5205 122.82 59.8607 122.697 58.2046C122.687 58.0857 122.654 57.9699 122.6 57.8638C122.546 57.7578 122.472 57.6636 122.382 57.5867C122.292 57.5097 122.188 57.4515 122.076 57.4153C121.964 57.3792 121.847 57.3658 121.729 57.3759C121.612 57.3861 121.498 57.4195 121.394 57.4744C121.29 57.5293 121.197 57.6046 121.121 57.6959C121.046 57.7871 120.988 57.8927 120.953 58.0065C120.917 58.1203 120.904 58.2401 120.914 58.359C121.005 59.6869 120.755 61.016 120.189 62.2162C119.622 63.4163 118.758 64.4462 117.682 65.2048C117.141 65.6391 116.465 65.8619 115.777 65.8328C115.281 65.6815 114.845 65.3733 114.534 64.953C114.222 64.5326 114.051 64.0222 114.044 63.496C114.026 62.4351 114.23 61.3825 114.642 60.4076C114.896 59.79 115.108 59.2032 115.291 58.6679C115.473 58.1326 115.716 57.3502 115.919 56.6914C116.39 54.9364 117.039 53.2356 117.854 51.6162C117.911 51.5121 117.948 51.3976 117.961 51.2792C117.975 51.1607 117.966 51.0408 117.934 50.926C117.902 50.8113 117.848 50.7041 117.775 50.6106C117.702 50.5171 117.612 50.439 117.51 50.3809C117.407 50.3227 117.294 50.2857 117.178 50.2718C117.061 50.2579 116.943 50.2675 116.83 50.3C116.717 50.3325 116.612 50.3873 116.52 50.4612C116.428 50.5352 116.351 50.6268 116.294 50.7309C115.907 51.4479 115.568 52.1908 115.281 52.9545C114.81 52.0625 114.146 51.2911 113.339 50.6989C112.531 50.1067 111.601 49.7093 110.62 49.5367C109.328 49.364 108.015 49.5137 106.793 49.9729C105.572 50.4321 104.478 51.187 103.609 52.1721C101.946 54.0972 100.953 56.5244 100.782 59.0797C100.478 62.0753 101.268 64.5357 102.899 65.8843ZM102.514 59.3061C102.652 57.1537 103.482 55.1067 104.875 53.4795C105.457 52.8251 106.164 52.2978 106.953 51.9297C107.742 51.5616 108.597 51.3604 109.465 51.3382C109.74 51.3396 110.014 51.3637 110.286 51.4103C111.231 51.5657 112.104 52.019 112.783 52.7062C113.461 53.3933 113.909 54.2796 114.065 55.2398C114.079 56.5651 113.791 57.8758 113.224 59.0694L112.95 59.8106C112.332 61.5084 111.283 63.0104 109.911 64.1651C108.3 65.421 105.665 65.8946 104.034 64.5048C102.403 63.1151 102.423 60.4385 102.514 59.3473V59.3061Z" fill="#82D7EC"/>
<path d="M28.6225 66.3887C29.2581 66.391 29.8904 66.2938 30.4969 66.1005C32.8311 65.1845 34.7747 63.4648 35.9884 61.2415L35.8972 61.6533C35.6731 62.4737 35.5774 63.3248 35.6135 64.1754C35.633 64.6347 35.7532 65.0837 35.9653 65.4898C36.1774 65.8958 36.476 66.2487 36.8394 66.5225C37.2838 66.8207 37.8066 66.975 38.3389 66.9652C39.2107 66.9335 40.0578 66.6632 40.7909 66.1828C41.9639 65.4538 42.9679 64.4755 43.7339 63.3152C44.4999 62.1549 45.0098 60.8399 45.2286 59.4606C45.2395 59.4148 45.2409 59.3673 45.2328 59.321C45.2247 59.2748 45.2071 59.2307 45.1814 59.1916C45.1556 59.1525 45.1221 59.1193 45.0831 59.0941C45.044 59.0689 45.0002 59.0521 44.9545 59.045C44.9087 59.0378 44.862 59.0404 44.8173 59.0526C44.7726 59.0647 44.7308 59.0862 44.6947 59.1155C44.6586 59.1449 44.6288 59.1816 44.6074 59.2233C44.5859 59.2649 44.5732 59.3107 44.5701 59.3576C44.3659 60.638 43.8917 61.8584 43.1799 62.9352C42.4682 64.012 41.5357 64.9197 40.4464 65.596C39.9803 65.8843 38.42 66.7593 37.2143 65.9563C36.9351 65.7371 36.7061 65.4587 36.5434 65.1405C36.3807 64.8222 36.2881 64.4719 36.272 64.1136C36.2417 63.3324 36.3306 62.551 36.5355 61.7974C37.9635 55.3705 39.9643 49.089 42.5133 43.0307C42.5306 42.9894 42.5397 42.9451 42.5402 42.9003C42.5406 42.8555 42.5324 42.811 42.5159 42.7694C42.4995 42.7279 42.4751 42.69 42.4442 42.658C42.4133 42.626 42.3766 42.6004 42.336 42.5829C42.2954 42.5653 42.2518 42.556 42.2077 42.5555C42.1636 42.5551 42.1198 42.5635 42.0789 42.5802C42.038 42.5969 42.0007 42.6217 41.9692 42.653C41.9377 42.6844 41.9125 42.7218 41.8952 42.763C40.1451 46.9402 38.6528 51.2241 37.4271 55.5899C37.3772 55.0293 37.2511 54.4784 37.0522 53.953C36.629 52.9828 35.9436 52.1543 35.0756 51.5639C34.2076 50.9735 33.1926 50.6454 32.1484 50.6176C31.1226 50.6113 30.1063 50.8181 29.162 51.2252C28.2176 51.6324 27.3652 52.2314 26.6569 52.9854C25.2698 54.4724 24.2551 56.2767 23.6984 58.2458C23.042 59.8903 23.0059 61.7231 23.5971 63.393C24.0581 64.3341 24.7788 65.1185 25.6712 65.6504C26.5636 66.1824 27.589 66.4389 28.6225 66.3887ZM24.3367 58.4723C24.8629 56.608 25.8219 54.8993 27.1331 53.4898C28.3879 52.1546 30.1093 51.3744 31.9255 51.3177H32.0775C32.9906 51.3382 33.8795 51.6207 34.6414 52.1325C35.4033 52.6444 36.0073 53.3647 36.3835 54.2104C36.6846 55.1579 36.7923 56.1579 36.7 57.1491C36.6076 58.1403 36.3172 59.102 35.8465 59.9753C34.7385 62.4628 32.7329 64.4232 30.2436 65.4519C28.0956 66.1519 25.1776 65.3901 24.1645 63.146C23.6583 61.6189 23.7196 59.9566 24.3367 58.4723Z" fill="#C9FFFF"/>
<path d="M63.6991 58.7915C63.6169 58.7601 63.5261 58.7619 63.4451 58.7963C63.3641 58.8307 63.2992 58.8953 63.2635 58.9767C62.3487 61.2986 60.9407 63.3867 59.1398 65.0916C58.6726 65.5885 58.0962 65.966 57.4579 66.1931C57.1904 66.2995 56.8998 66.3307 56.6163 66.2836C56.3329 66.2365 56.0671 66.1128 55.8469 65.9255C55.5626 65.5668 55.3679 65.1435 55.2797 64.6917C55.1915 64.2399 55.2123 63.7731 55.3403 63.3313L57.2755 54.3854C57.5902 53.2806 57.8339 52.1561 58.005 51.0192C58.013 50.9752 58.0124 50.9301 58.0032 50.8864C57.994 50.8427 57.9765 50.8013 57.9515 50.7645C57.9012 50.6902 57.8238 50.6392 57.7365 50.6228C57.6933 50.6147 57.6489 50.6153 57.6059 50.6247C57.5629 50.634 57.5221 50.6518 57.4859 50.6772C57.4127 50.7283 57.3626 50.8069 57.3464 50.8956L56.6271 54.2207C55.7636 57.253 54.3627 60.0998 52.4933 62.621C51.5799 64.0346 50.2656 65.1331 48.7242 65.7711C47.3058 66.2343 45.3503 65.7711 44.6715 64.3504C44.1649 63.2386 44.4891 61.921 44.8944 60.5621L47.7516 51.0295C47.7682 50.9858 47.7759 50.9391 47.7739 50.8923C47.772 50.8456 47.7606 50.7997 47.7404 50.7576C47.7202 50.7155 47.6916 50.6781 47.6565 50.6478C47.6214 50.6175 47.5805 50.5948 47.5364 50.5813C47.4923 50.5678 47.4459 50.5637 47.4001 50.5692C47.3544 50.5748 47.3102 50.5899 47.2705 50.6136C47.2308 50.6373 47.1963 50.6691 47.1692 50.707C47.1422 50.7449 47.1231 50.7881 47.1133 50.8339L44.2358 60.3459C43.8001 61.7871 43.4354 63.3004 44.0433 64.6284C44.8741 66.4402 47.2146 66.9652 48.9066 66.4196C50.566 65.7321 51.9797 64.5471 52.9593 63.0225C53.9787 61.6513 54.8644 60.1826 55.6038 58.637L54.5906 63.1872C54.4338 63.7426 54.4156 64.3289 54.5377 64.8933C54.6597 65.4576 54.9182 65.9822 55.2897 66.4196C55.6752 66.7812 56.1836 66.9768 56.7081 66.9652C56.9927 66.9633 57.2756 66.9218 57.5491 66.8417C58.2893 66.5857 58.9594 66.1553 59.5045 65.5858C61.3786 63.8152 62.8454 61.6464 63.8004 59.2341C63.8403 59.1606 63.8521 59.0748 63.8334 58.993C63.8147 58.9113 63.7668 58.8395 63.6991 58.7915Z" fill="#C9FFFF"/>
<path d="M79.9709 60.0576C79.9267 60.0534 79.8821 60.0584 79.8398 60.0724C79.7976 60.0864 79.7587 60.1091 79.7254 60.139C79.6922 60.1689 79.6653 60.2055 79.6465 60.2464C79.6278 60.2873 79.6175 60.3317 79.6163 60.3768C79.6505 61.7694 79.3441 63.1489 78.7247 64.3916C78.4251 64.9497 77.9371 65.379 77.3506 65.6003C76.7641 65.8217 76.1186 65.8201 75.5331 65.596C75.2209 65.3976 74.9572 65.1294 74.7624 64.8119C74.5675 64.4944 74.4464 64.1359 74.4085 63.7636C74.3284 62.9604 74.4042 62.149 74.6314 61.3753C74.7428 60.9121 74.8745 60.4488 75.0063 59.9856C75.3939 58.7913 75.6388 57.5539 75.7358 56.3002C75.7965 54.7046 75.2393 52.5221 73.4764 51.6059C72.7861 51.2936 72.0293 51.1638 71.2764 51.2286C70.5235 51.2934 69.799 51.5507 69.1703 51.9765C67.98 52.7848 66.9688 53.8367 66.2017 55.0649C65.4658 56.1589 64.7894 57.293 64.1753 58.462L66.4144 51.0398C66.4324 50.9562 66.4188 50.8688 66.3761 50.795C66.3335 50.7212 66.265 50.6665 66.1844 50.6418C66.1037 50.6171 66.0169 50.6242 65.9412 50.6618C65.8656 50.6993 65.8066 50.7644 65.7761 50.8442L61.8956 63.7122C61.5781 64.6249 61.2978 65.5514 61.0547 66.4917C61.0329 66.5776 61.045 66.6689 61.0886 66.7458C61.1321 66.8228 61.2036 66.8794 61.2877 66.9034H61.3789C61.4508 66.9047 61.5212 66.8823 61.5796 66.8396C61.638 66.797 61.6813 66.7363 61.7031 66.6667L62.5339 63.9078C63.5726 60.8996 65.0038 58.0466 66.7893 55.4252C67.4995 54.2588 68.4417 53.256 69.5553 52.481C70.0862 52.1175 70.6987 51.8959 71.3362 51.8365C71.9737 51.7771 72.6157 51.8819 73.2028 52.1412C74.6922 52.9133 75.1583 54.8178 75.0975 56.2075C75.0002 57.409 74.7621 58.5944 74.3882 59.7385C74.2565 60.2121 74.1248 60.6753 74.0032 61.1489C73.7555 62.0102 73.6763 62.9125 73.7702 63.8048C73.8241 64.2808 73.9846 64.7379 74.2392 65.1412C74.4938 65.5445 74.8359 65.8832 75.2393 66.1314C76.6679 66.924 78.5018 66.0284 79.2921 64.6901C79.9795 63.3537 80.3278 61.864 80.3052 60.3562C80.2953 60.2734 80.2557 60.1972 80.1941 60.1422C80.1324 60.0871 80.053 60.057 79.9709 60.0576Z" fill="#C9FFFF"/>
<path d="M85.0064 66.3887C85.6421 66.391 86.2743 66.2938 86.8808 66.1005C89.215 65.1845 91.1586 63.4648 92.3723 61.2415L92.2811 61.6533C92.057 62.4737 91.9613 63.3248 91.9974 64.1754C92.017 64.6347 92.1371 65.0837 92.3492 65.4898C92.5613 65.8958 92.86 66.2487 93.2234 66.5225C93.6677 66.8207 94.1905 66.975 94.7229 66.9652C95.5946 66.9335 96.4418 66.6632 97.1748 66.1828C98.3479 65.4538 99.3518 64.4755 100.118 63.3152C100.884 62.1549 101.394 60.8399 101.613 59.4606C101.623 59.4148 101.625 59.3673 101.617 59.321C101.609 59.2748 101.591 59.2307 101.565 59.1916C101.54 59.1525 101.506 59.1193 101.467 59.0941C101.428 59.0689 101.384 59.0521 101.338 59.045C101.293 59.0378 101.246 59.0404 101.201 59.0526C101.157 59.0647 101.115 59.0862 101.079 59.1155C101.043 59.1449 101.013 59.1816 100.991 59.2233C100.97 59.2649 100.957 59.3107 100.954 59.3576C100.75 60.638 100.276 61.8584 99.5639 62.9352C98.8521 64.012 97.9196 64.9197 96.8303 65.596C96.3643 65.8843 94.8039 66.7593 93.5982 65.9563C93.319 65.7371 93.09 65.4587 92.9273 65.1405C92.7646 64.8222 92.672 64.4719 92.656 64.1136C92.6256 63.3324 92.7145 62.551 92.9194 61.7974C94.3638 55.3688 96.3816 49.0872 98.9479 43.0307C98.9652 42.9894 98.9743 42.9451 98.9747 42.9003C98.9752 42.8555 98.967 42.811 98.9505 42.7694C98.934 42.7279 98.9097 42.69 98.8788 42.658C98.8479 42.626 98.8112 42.6004 98.7706 42.5829C98.73 42.5653 98.6864 42.556 98.6423 42.5555C98.5982 42.5551 98.5544 42.5635 98.5135 42.5802C98.4726 42.5969 98.4353 42.6217 98.4037 42.653C98.3722 42.6844 98.3471 42.7218 98.3298 42.763C96.559 46.9387 95.0464 51.2227 93.8009 55.5899C93.7511 55.0293 93.6249 54.4784 93.426 53.953C93.0028 52.9828 92.3174 52.1543 91.4494 51.5639C90.5814 50.9735 89.5664 50.6454 88.5222 50.6176C87.4964 50.6113 86.4801 50.8181 85.5357 51.2252C84.5914 51.6324 83.7389 52.2314 83.0307 52.9854C81.6436 54.4724 80.6289 56.2767 80.0722 58.2458C79.4158 59.8903 79.3797 61.7231 79.9709 63.393C80.4326 64.3358 81.1549 65.1212 82.0493 65.6533C82.9436 66.1854 83.9713 66.4409 85.0064 66.3887ZM80.7105 58.4723C81.2367 56.608 82.1957 54.8993 83.5069 53.4898C84.7617 52.1546 86.4831 51.3744 88.2993 51.3177H88.4918C89.405 51.3382 90.2938 51.6207 91.0557 52.1325C91.8177 52.6444 92.4216 53.3647 92.7978 54.2104C93.0989 55.1579 93.2066 56.1579 93.1143 57.1491C93.022 58.1403 92.7315 59.102 92.2608 59.9753C91.1528 62.4628 89.1472 64.4232 86.6579 65.4519C84.5099 66.1519 81.592 65.3901 80.5788 63.146C80.0598 61.6239 80.1066 59.9616 80.7105 58.4723Z" fill="#C9FFFF"/>
<path d="M103.001 65.2666C105.179 67.1196 108.442 66.4916 110.407 64.9578C111.24 64.2967 111.959 63.5001 112.535 62.6003C112.513 62.8916 112.513 63.1841 112.535 63.4754C112.562 64.2837 112.849 65.0609 113.352 65.6875C113.855 66.3142 114.547 66.7558 115.321 66.9446H115.706C116.562 66.9046 117.387 66.6073 118.077 66.0901C119.336 65.2052 120.347 64.0022 121.01 62.5997C121.673 61.1971 121.964 59.6433 121.856 58.0914C121.848 58.0013 121.805 57.9181 121.737 57.8602C121.668 57.8023 121.58 57.7744 121.491 57.7825C121.403 57.7907 121.321 57.8344 121.264 57.9039C121.207 57.9734 121.179 58.0631 121.187 58.1531C121.288 59.5837 121.02 61.0163 120.409 62.3091C119.797 63.6019 118.864 64.7101 117.702 65.5239C117.05 66.0391 116.236 66.2953 115.412 66.2446C114.779 66.0932 114.212 65.7337 113.8 65.2219C113.388 64.7101 113.153 64.0745 113.133 63.4136C113.103 62.2908 113.311 61.1747 113.74 60.14C113.994 59.5326 114.207 58.9355 114.399 58.3693C114.592 57.8031 114.814 57.0619 115.017 56.4031C115.503 54.6239 116.165 52.8994 116.993 51.2559C117.014 51.2167 117.028 51.1736 117.032 51.1291C117.037 51.0846 117.034 51.0396 117.021 50.9965C117.009 50.9535 116.989 50.9134 116.961 50.8784C116.934 50.8434 116.9 50.8143 116.861 50.7926C116.823 50.771 116.78 50.7573 116.736 50.7523C116.693 50.7473 116.648 50.7512 116.606 50.7636C116.564 50.776 116.524 50.7968 116.49 50.8248C116.455 50.8527 116.426 50.8873 116.405 50.9265C115.792 52.0876 115.287 53.3042 114.896 54.5604C114.643 53.4046 114.055 52.3522 113.208 51.5393C112.361 50.7263 111.294 50.1901 110.144 50C108.943 49.8418 107.722 49.9832 106.587 50.4118C105.452 50.8405 104.437 51.5436 103.629 52.4603C102.049 54.2911 101.106 56.5989 100.944 59.0282C100.741 61.715 101.461 63.9901 103.001 65.2666ZM101.694 59.0899C101.838 56.8078 102.717 54.6373 104.196 52.9133C104.831 52.2006 105.603 51.6268 106.463 51.2268C107.324 50.8269 108.255 50.6091 109.201 50.5868C109.507 50.5855 109.812 50.6096 110.113 50.6588C111.184 50.8252 112.174 51.3359 112.938 52.1159C113.702 52.8959 114.2 53.9042 114.359 54.9928C114.391 56.4159 114.093 57.8268 113.487 59.1105L113.193 59.9135C112.528 61.6758 111.429 63.2353 110.002 64.443C108.239 65.8122 105.341 66.399 103.426 64.7724C101.511 63.1459 101.542 60.2429 101.643 59.0693L101.694 59.0899Z" fill="#C9FFFF"/>
</svg>
